<?xml version="1.0" encoding="utf-8"?>
<!-- Generator: Adobe Illustrator 16.0.3, SVG Export Plug-In . SVG Version: 6.00 Build 0)  -->
<!DOCTYPE svg PUBLIC "-//W3C//DTD SVG 1.1//EN" "http://www.w3.org/Graphics/SVG/1.1/DTD/svg11.dtd">
<svg version="1.1" id="Capa_1" xmlns="http://www.w3.org/2000/svg" xmlns:xlink="http://www.w3.org/1999/xlink" x="0px" y="0px"
	 width="112.313px" height="14.463px" viewBox="0 0 112.313 14.463" enable-background="new 0 0 112.313 14.463"
	 xml:space="preserve">
<g id="Capa_3">
</g>
<g>
	<path fill="#FFFFFF" d="M0.029,1.998H6.32c1.551,0,2.635,0.379,3.365,1.081c0.497,0.497,0.789,1.171,0.789,1.99v0.028
		c0,1.434-0.818,2.253-1.901,2.749c1.493,0.498,2.428,1.347,2.428,3.015v0.029c0,2.105-1.726,3.395-4.651,3.395H0V1.998H0.029z
		 M7.141,5.8c0-0.673-0.557-1.054-1.551-1.054H3.365v2.166h2.136c1.024,0,1.64-0.352,1.64-1.084V5.8z M5.941,9.281H3.337v2.254
		h2.632c1.054,0,1.639-0.412,1.639-1.112v-0.03C7.607,9.72,7.08,9.281,5.941,9.281"/>
	<path fill="#FFFFFF" d="M12.093,1.998h5.823c1.871,0,3.188,0.496,4.008,1.315c0.731,0.731,1.083,1.639,1.083,2.866v0.03
		c0,1.901-0.996,3.13-2.517,3.804l2.924,4.271h-3.92l-2.486-3.717h-1.521v3.717h-3.394V1.998z M17.77,7.906
		c1.14,0,1.813-0.556,1.813-1.463V6.414c0-0.994-0.731-1.462-1.844-1.462h-2.253v2.954H17.77z"/>
	<rect x="34.74" y="1.998" fill="#FFFFFF" width="3.395" height="12.285"/>
	<polygon fill="#FFFFFF" points="40.221,1.996 43.38,1.996 48.443,8.492 48.443,1.996 51.807,1.996 51.807,14.283 48.852,14.283 
		43.585,7.555 43.585,14.283 40.221,14.283 	"/>
	<path fill="#FFFFFF" d="M52.752,12.387l1.901-2.254c1.229,0.966,2.575,1.465,3.979,1.465c0.938,0,1.435-0.323,1.435-0.85v-0.03
		c0-0.525-0.41-0.79-2.077-1.198c-2.604-0.586-4.623-1.347-4.623-3.834V5.657c0-2.282,1.814-3.921,4.769-3.921
		c2.077,0,3.714,0.556,5.061,1.639l-1.695,2.398c-1.112-0.818-2.341-1.198-3.453-1.198c-0.819,0-1.229,0.32-1.229,0.789v0.03
		c0,0.556,0.41,0.818,2.137,1.199c2.809,0.614,4.564,1.521,4.564,3.833v0.028c0,2.516-1.99,4.008-4.975,4.008
		C56.351,14.404,54.273,13.73,52.752,12.387"/>
	<polygon fill="#FFFFFF" points="64.688,1.996 68.082,1.996 68.082,6.589 72.442,6.589 72.442,1.996 75.836,1.996 75.836,14.283 
		72.442,14.283 72.442,9.604 68.082,9.604 68.082,14.283 64.688,14.283 	"/>
	<path fill="#FFFFFF" d="M88.415,1.998h5.821c1.873,0,3.189,0.496,4.008,1.315c0.731,0.731,1.082,1.639,1.082,2.866v0.03
		c0,1.901-0.992,3.13-2.516,3.804l2.926,4.271h-3.92l-2.486-3.717h-1.522v3.717h-3.393V1.998z M94.062,7.906
		c1.14,0,1.812-0.556,1.812-1.463V6.414c0-0.994-0.729-1.462-1.842-1.462h-2.252v2.954H94.062z"/>
	<polygon fill="#FFFFFF" points="100.522,1.996 103.916,1.996 103.916,6.969 108.158,1.996 112.166,1.996 107.514,7.264 
		112.313,14.283 108.246,14.283 105.145,9.721 103.887,11.096 103.887,14.283 100.492,14.283 100.492,1.996 	"/>
	<polygon fill="#FFFFFF" points="27.771,0 26.021,4.086 27.689,7.919 24.332,7.919 23.178,10.579 28.773,10.579 30.395,14.285 
		33.986,14.285 	"/>
	<polygon fill="#FFFFFF" points="81.445,0 79.695,4.086 81.363,7.919 78.006,7.919 76.853,10.579 82.447,10.579 84.068,14.285 
		87.659,14.285 	"/>
</g>
</svg>
